{"title":"White Wall 2010 DVDRip.MP4.AAC.FEEL-FREE","uid":5632743,"size":881709218,"categoryP":"video","categoryS":"movies","magnet":"?xt=urn:btih:45a6b3e50c6d0518c934e068f45320486945cd75&amp;dn=White+Wall+2010+DVDRip.MP4.AAC.FEEL-FREE&amp;tr=udp%3A%2F%2Ftracker.openbittorrent.com%3A80&amp;tr=udp%3A%2F%2Fopen.demonii.com%3A1337&amp;tr=udp%3A%2F%2Ftracker.coppersurfer.tk%3A6969&amp;tr=udp%3A%2F%2Fexodus.desync.com%3A6969","seeders":0,"leechers":0,"uploader":"hiest","files":7,"time":1276751962,"description":"Genre:Drama/Fantasy/Sci-Fi \nIMDB:http://www.imdb.com/title/tt0969653/\nLanguage:English\nCountry:USA\nEncoder: Tony2\n.............................................\nGeneral\nComplete name : White Wall 2010 DVDRip.MP4.AAC.FEEL-FREE\nFormat : MPEG-4\nFormat profile : Base Media\nCodec ID : isom\nFile size : 840 MiB\nDuration : 1h 35mn\nOverall bit rate : 1 235 Kbps\n...............................................\nVideo\nID : 1\nFormat : MPEG-4 Visual\nFormat profile : Simple@L1\nFormat settings, BVOP : No\nFormat settings, QPel : No\nFormat settings, GMC : No warppoints\nFormat settings, Matrix : Default (H.263)\nCodec ID : 20\nDuration : 1h 35mn\nBit rate mode : Variable\nBit rate : 1 103 Kbps\nWidth : 704 pixels\nHeight : 304 pixels\nDisplay aspect ratio : 2.35:1\nFrame rate mode : Constant\nFrame rate : 23.976 fps\nResolution : 24 bits\nColorimetry : 4:2:0\nScan type : Progressive\nBits/(Pixel*Frame) : 0.215\nStream size : 750 MiB (89%)\nWriting library : Lavc51.40.4\n................................................\nAudio\nID : 2\nFormat : AAC\nFormat/Info : Advanced Audio Codec\nFormat version : Version 4\nFormat profile : LC\nFormat settings, SBR : No\nCodec ID : 40\nDuration : 1h 35mn\nBit rate mode : Variable\nBit rate : 128 Kbps\nChannel(s) : 2 channels\nChannel positions : L R\nSampling rate : 48.0 KHz\nResolution : 16 bits\nStream size : 86.8 MiB (10%)\n.................................................\nPlot:\nSet in a wasteland enclosed by a large white wall, the last survivor from a brutal child internment camp reluctantly takes on one final bounty hunting job to protect the idyllic life he has rebuilt. \n..................................................\nScreenshots: &lt;a href=&quot;\nhttp://postimg.com/image/17000/16449.jpg&quot; rel=&quot;nofollow&quot; target=&quot;_NEW&quot;&gt;\nhttp://postimg.com/image/17000/16449.jpg&lt;/a&gt;\n...................................................","torrent":{"xt":"urn:btih:45a6b3e50c6d0518c934e068f45320486945cd75","amp;dn":"White+Wall+2010+DVDRip.MP4.AAC.FEEL-FREE","amp;tr":["udp%3A%2F%2Ftracker.openbittorrent.com%3A80","udp%3A%2F%2Fopen.demonii.com%3A1337","udp%3A%2F%2Ftracker.coppersurfer.tk%3A6969","udp%3A%2F%2Fexodus.desync.com%3A6969"],"infoHash":"45a6b3e50c6d0518c934e068f45320486945cd75","infoHashBuffer":{"type":"Buffer","data":[69,166,179,229,12,109,5,24,201,52,224,104,244,83,32,72,105,69,205,117]},"announce":[],"urlList":[]}}